<svg width="686" height="220" viewBox="0 0 686 220" fill="none" xmlns="http://www.w3.org/2000/svg">
<g clip-path="url(#clip0_15_3940)">
<path d="M7.24998 110.66C7.24998 107.44 7.16998 104.53 6.97998 101.84H12.39L12.74 107.61H12.91C14.56 104.44 18.69 101.04 24.65 101.04C29.06 101.04 37.19 103.49 37.19 115.64V134.03H31.12V116.2C31.12 110.54 28.75 106 22.69 106C18.28 106 14.96 109.05 13.78 112.27C13.51 112.96 13.33 114.01 13.33 114.93V134.03H7.24998V110.66Z" fill="#72A5FC"/>
<path d="M50.7199 119.2C50.8599 126.46 56.2699 130.12 62.8799 130.12C67.7299 130.12 70.5299 129.29 72.9999 128.32L74.0899 132.62C71.9499 133.53 68.0999 134.84 62.1299 134.84C51.4999 134.84 44.8999 128.16 44.8999 118.56C44.8999 108.96 51.0799 101.05 61.4899 101.05C73.3099 101.05 76.0899 111.03 76.0899 116.51C76.0899 117.73 76.0099 118.61 75.8499 119.21H50.7199V119.2ZM70.2099 114.83C70.2499 112.06 68.9799 105.3 61.0299 105.3C54.1799 105.3 51.3499 110.88 50.7999 114.83H70.2099Z" fill="#72A5FC"/>
<path d="M86.5 101.84L91.67 108.73C93.02 110.52 94.14 112.08 95.33 113.84H95.48C96.67 112 97.84 110.39 99.11 108.65L104.11 101.84H110.86L98.76 117.29L111.27 134.03H104.29L98.96 126.81C97.53 124.88 96.32 123.02 95.07 121.17H94.92C93.73 123.13 92.51 124.8 91.08 126.81L85.9 134.03H79.01L91.74 117.52L79.63 101.84H86.5Z" fill="#72A5FC"/>
<path d="M125.58 92.3401V101.84H134.74V106.46H125.58V123.21C125.58 127.16 126.62 129.81 130.37 129.81C132.12 129.81 133.38 129.59 134.21 129.31L134.49 133.92C133.28 134.41 131.25 134.83 128.78 134.83C125.87 134.83 123.48 133.83 122.03 132.17C120.31 130.29 119.64 127.22 119.64 123.67V106.46H114.3V101.84H119.64V93.8601L125.59 92.3401H125.58Z" fill="#72A5FC"/>
<path d="M187.95 101.84C187.77 104.14 187.68 106.66 187.68 110.24V129.16C187.68 136.26 186.01 141.14 182.61 144.13C179.04 147.27 174.04 148.14 169.82 148.14C165.6 148.14 160.77 147.14 157.84 145.13L159.4 140.47C161.84 142.04 165.54 143.43 170.05 143.43C176.67 143.43 181.69 140.11 181.69 131.67V127.97H181.56C179.57 131.16 175.68 133.9 169.96 133.9C161.15 133.9 154.81 126.94 154.81 118.21C154.81 107.62 162.49 101.04 170.82 101.04C177.14 101.04 180.64 104.12 182.22 107.06H182.35L182.59 101.84H187.95ZM181.61 115.03C181.61 114.03 181.52 113.14 181.26 112.33C180.01 108.51 176.63 105.66 171.84 105.66C165.62 105.66 160.95 110.29 160.95 117.89C160.95 123.54 164.43 129.36 171.77 129.36C176.09 129.36 179.77 126.54 181.1 122.84C181.42 121.92 181.61 120.72 181.61 119.66V115.04V115.03Z" fill="#72A5FC"/>
<path d="M201.46 119.2C201.6 126.46 207.01 130.12 213.62 130.12C218.47 130.12 221.27 129.29 223.74 128.32L224.83 132.62C222.69 133.53 218.84 134.84 212.87 134.84C202.24 134.84 195.64 128.16 195.64 118.56C195.64 108.96 201.82 101.05 212.23 101.05C224.05 101.05 226.83 111.03 226.83 116.51C226.83 117.73 226.75 118.61 226.59 119.21H201.46V119.2ZM220.95 114.83C220.99 112.06 219.72 105.3 211.77 105.3C204.92 105.3 202.09 110.88 201.54 114.83H220.95Z" fill="#72A5FC"/>
<path d="M234.73 110.66C234.73 107.44 234.65 104.53 234.46 101.84H239.87L240.22 107.61H240.39C242.04 104.44 246.17 101.04 252.13 101.04C256.54 101.04 264.67 103.49 264.67 115.64V134.03H258.6V116.2C258.6 110.54 256.23 106 250.17 106C245.76 106 242.44 109.05 241.26 112.27C240.99 112.96 240.81 114.01 240.81 114.93V134.03H234.74V110.66H234.73Z" fill="#72A5FC"/>
<path d="M297.7 92.3401V101.84H306.86V106.46H297.7V123.21C297.7 127.16 298.74 129.81 302.49 129.81C304.24 129.81 305.5 129.59 306.33 129.31L306.61 133.92C305.4 134.41 303.37 134.83 300.9 134.83C297.99 134.83 295.6 133.83 294.15 132.17C292.43 130.29 291.76 127.22 291.76 123.67V106.46H286.42V101.84H291.76V93.8601L297.71 92.3401H297.7Z" fill="#72A5FC"/>
<path d="M317.03 119.2C317.17 126.46 322.58 130.12 329.19 130.12C334.04 130.12 336.84 129.29 339.31 128.32L340.39 132.62C338.25 133.53 334.4 134.84 328.43 134.84C317.8 134.84 311.2 128.16 311.2 118.56C311.2 108.96 317.38 101.05 327.79 101.05C339.61 101.05 342.39 111.03 342.39 116.51C342.39 117.73 342.31 118.61 342.15 119.21H317.03V119.2ZM336.52 114.83C336.56 112.06 335.29 105.3 327.34 105.3C320.49 105.3 317.66 110.88 317.11 114.83H336.52Z" fill="#72A5FC"/>
<path d="M375.69 132.74C374.01 133.52 370.17 134.83 365.14 134.83C354.53 134.83 347.64 127.91 347.64 118.34C347.64 108.19 355.1 101.04 366.47 101.04C370.5 101.04 374.02 102.05 375.82 102.98L374.42 107.59C372.73 106.68 370.24 105.82 366.51 105.82C358.43 105.82 353.82 111.12 353.84 117.92C353.84 125.36 359.28 129.97 366.28 129.97C370.2 129.97 372.78 128.96 374.6 128.2L375.7 132.74H375.69Z" fill="#72A5FC"/>
<path d="M383.33 86.3701H389.4V107.39H389.53C390.59 105.57 392.2 103.94 394.24 102.82C396.12 101.71 398.46 101.04 400.81 101.04C405.24 101.04 413.27 103.49 413.27 115.59V134.03H407.2V116.25C407.2 110.64 404.88 106.05 398.72 106.05C394.4 106.05 391.08 109.04 389.85 112.13C389.49 112.99 389.4 113.86 389.4 115.04V134.03H383.33V86.3701Z" fill="#72A5FC"/>
<path d="M438.21 127.86C440.18 129.08 443.63 130.35 446.83 130.35C451.57 130.35 453.59 128.14 453.59 125.52C453.59 122.58 451.62 121.18 446.98 119.76C440.62 117.85 437.72 114.56 437.74 110.65C437.74 105.48 442.06 101.04 449.63 101.04C453.16 101.04 456.29 101.95 458.24 103.13L456.75 107.52C455.5 106.77 452.81 105.47 449.37 105.47C445.67 105.47 443.64 107.45 443.64 110C443.64 112.83 445.89 114.01 450.46 115.47C456.62 117.43 459.48 120.18 459.51 125.09C459.51 130.54 455.07 134.84 446.68 134.84C442.76 134.84 439.29 133.87 436.73 132.47L438.21 127.87V127.86Z" fill="#72A5FC"/>
<path d="M470.96 119.2C471.1 126.46 476.51 130.12 483.12 130.12C487.97 130.12 490.77 129.29 493.24 128.32L494.33 132.62C492.19 133.53 488.34 134.84 482.37 134.84C471.74 134.84 465.14 128.16 465.14 118.56C465.14 108.96 471.32 101.05 481.73 101.05C493.55 101.05 496.33 111.03 496.33 116.51C496.33 117.73 496.25 118.61 496.09 119.21H470.96V119.2ZM490.45 114.83C490.49 112.06 489.22 105.3 481.27 105.3C474.42 105.3 471.59 110.88 471.04 114.83H490.45Z" fill="#72A5FC"/>
<path d="M504.23 112.44C504.23 108.28 504.16 105.02 503.96 101.84H509.28L509.49 108.58H509.71C511.37 103.84 515.19 101.04 519.42 101.04C520.11 101.04 520.63 101.09 521.23 101.24V106.84C520.53 106.69 519.85 106.63 518.92 106.63C514.5 106.63 511.42 109.77 510.54 114.38C510.38 115.19 510.29 116.14 510.29 117.05V134.03H504.22V112.44H504.23Z" fill="#72A5FC"/>
<path d="M531.63 101.84L538.69 119.88C539.98 123.13 540.91 125.72 541.73 128.35H541.9C542.77 125.67 543.82 123.01 545.04 119.88L552.12 101.84H558.59L544.5 134.03H538.57L525.02 101.84H531.63Z" fill="#72A5FC"/>
<path d="M571.39 92.49C571.39 94.48 569.93 96.23 567.47 96.23C565.19 96.23 563.73 94.47 563.73 92.49C563.73 90.51 565.29 88.75 567.58 88.75C569.87 88.75 571.37 90.44 571.39 92.49ZM564.52 134.03V101.84H570.59V134.03H564.52Z" fill="#72A5FC"/>
<path d="M606.56 132.74C604.88 133.52 601.04 134.83 596.01 134.83C585.4 134.83 578.51 127.91 578.51 118.34C578.51 108.19 585.97 101.04 597.34 101.04C601.37 101.04 604.89 102.05 606.69 102.98L605.29 107.59C603.6 106.68 601.11 105.82 597.38 105.82C589.3 105.82 584.69 111.12 584.71 117.92C584.71 125.36 590.15 129.97 597.15 129.97C601.07 129.97 603.65 128.96 605.47 128.2L606.57 132.74H606.56Z" fill="#72A5FC"/>
<path d="M617.04 119.2C617.18 126.46 622.59 130.12 629.2 130.12C634.05 130.12 636.85 129.29 639.32 128.32L640.41 132.62C638.27 133.53 634.42 134.84 628.45 134.84C617.82 134.84 611.22 128.16 611.22 118.56C611.22 108.96 617.4 101.05 627.81 101.05C639.63 101.05 642.41 111.03 642.41 116.51C642.41 117.73 642.33 118.61 642.17 119.21H617.04V119.2ZM636.53 114.83C636.57 112.06 635.3 105.3 627.35 105.3C620.5 105.3 617.67 110.88 617.12 114.83H636.53Z" fill="#72A5FC"/>
<path d="M649.5 127.86C651.47 129.08 654.92 130.35 658.12 130.35C662.86 130.35 664.88 128.14 664.88 125.52C664.88 122.58 662.91 121.18 658.27 119.76C651.91 117.85 649.01 114.56 649.03 110.65C649.03 105.48 653.35 101.04 660.92 101.04C664.45 101.04 667.58 101.95 669.53 103.13L668.04 107.52C666.79 106.77 664.1 105.47 660.66 105.47C656.96 105.47 654.93 107.45 654.93 110C654.93 112.83 657.18 114.01 661.75 115.47C667.91 117.43 670.77 120.18 670.8 125.09C670.8 130.54 666.36 134.84 657.97 134.84C654.05 134.84 650.58 133.87 648.02 132.47L649.5 127.87V127.86Z" fill="#72A5FC"/>
<path d="M137.16 179.81L136.46 180.14C132.3 171.05 127.71 161.88 122.69 152.5H92.21L132.12 216.1H160.06V152.5H135.32C135.76 161.56 136.35 170.56 137.16 179.81Z" fill="#3F80EF"/>
<path d="M25.9 152.5H0V216.1H25.9V152.5Z" fill="#3F80EF"/>
<path d="M23.88 37.3301L24.82 37.0001C31 50.4501 38.45 64.2901 46.47 78.2101H77.74L30.24 3.31006H0V78.2001H25.51C25.21 64.0001 24.7 50.8201 23.88 37.3201V37.3301Z" fill="#3F80EF"/>
<path d="M160.06 3.31006H134.16V78.2001H160.06V3.31006Z" fill="#3F80EF"/>
<path d="M343.2 189.79C336.85 192.99 324.64 195.52 306.66 195.52C272.01 195.52 245.83 180.04 233.08 152.5H202.04C207.16 167.58 215.08 180.44 225.13 190.11C245.85 210.08 272.48 218.23 304.77 218.23C333.46 218.23 357.91 211.19 370.25 206.54V152.5H343.22V189.79H343.2Z" fill="#3F80EF"/>
<path d="M309.99 24.2499C331.48 24.2499 345.69 28.1999 357.03 33.3599L363.9 10.9399C354.75 6.58994 335.24 1.18994 310.63 1.18994C252.31 1.18994 212.5 32.2299 199.83 78.2099H229.13C240.03 44.0399 269.5 24.2499 309.97 24.2499H309.99Z" fill="#3F80EF"/>
<path d="M480.33 26.5301H545.51V3.31006H387.82V26.5301H452.69V78.2001H480.33V26.5301Z" fill="#3F80EF"/>
<path d="M480.34 152.5H452.69V216.1H480.34V152.5Z" fill="#3F80EF"/>
<path d="M657.44 160.17C657.44 181.72 640.9 196.4 612.77 196.4C593.87 196.4 575.92 190.3 563.63 182.61L556.4 205.53C567.77 213.2 590.22 219.42 610.81 219.42C661.27 219.42 685.33 190.7 685.33 158.06C685.33 156.16 685.26 154.31 685.12 152.5H656.75C657.2 154.92 657.44 157.46 657.44 160.17Z" fill="#3F80EF"/>
<path d="M588.67 54.53C588.67 40.03 599.72 22.71 628.97 22.71C648.14 22.71 662.4 28.79 669.18 32.81L676.85 10.28C667.56 5.01 651.49 0 629.87 0C588.39 0 560.84 24.58 560.84 57.7C560.84 65.24 562.24 72.04 564.87 78.2H598.93C591.94 71.85 588.66 64.45 588.66 54.53H588.67Z" fill="#3F80EF"/>
</g>
<defs>
<clipPath id="clip0_15_3940">
<rect width="685.33" height="219.42" fill="white"/>
</clipPath>
</defs>
</svg>
